<mxfile host="app.diagrams.net" modified="2023-11-28T16:55:09.752Z" agent="Mozilla/5.0 (Windows NT 10.0; Win64; x64) AppleWebKit/537.36 (KHTML, like Gecko) Chrome/119.0.0.0 Safari/537.36" etag="y4Z6Hr_AkM3hd2NQW8As" version="22.1.4" type="github">
  <diagram id="C5RBs43oDa-KdzZeNtuy" name="Page-1">
    <mxGraphModel dx="1434" dy="780" grid="1" gridSize="10" guides="1" tooltips="1" connect="1" arrows="1" fold="1" page="1" pageScale="1" pageWidth="1200" pageHeight="1600" math="0" shadow="0">
      <root>
        <mxCell id="WIyWlLk6GJQsqaUBKTNV-0" />
        <mxCell id="WIyWlLk6GJQsqaUBKTNV-1" parent="WIyWlLk6GJQsqaUBKTNV-0" />
        <mxCell id="qdE8DoFFmUSZvLk6b_Nt-0" value="Cliente" style="swimlane;fontStyle=2;align=center;verticalAlign=top;childLayout=stackLayout;horizontal=1;startSize=26;horizontalStack=0;resizeParent=1;resizeLast=0;collapsible=1;marginBottom=0;rounded=0;shadow=0;strokeWidth=1;" vertex="1" parent="WIyWlLk6GJQsqaUBKTNV-1">
          <mxGeometry y="182" width="230" height="170" as="geometry">
            <mxRectangle x="230" y="140" width="160" height="26" as="alternateBounds" />
          </mxGeometry>
        </mxCell>
        <mxCell id="qdE8DoFFmUSZvLk6b_Nt-1" value="id: int" style="text;align=left;verticalAlign=top;spacingLeft=4;spacingRight=4;overflow=hidden;rotatable=0;points=[[0,0.5],[1,0.5]];portConstraint=eastwest;" vertex="1" parent="qdE8DoFFmUSZvLk6b_Nt-0">
          <mxGeometry y="26" width="230" height="26" as="geometry" />
        </mxCell>
        <mxCell id="qdE8DoFFmUSZvLk6b_Nt-2" value="listaDePesagem: List&lt;Pesagem&gt;" style="text;align=left;verticalAlign=top;spacingLeft=4;spacingRight=4;overflow=hidden;rotatable=0;points=[[0,0.5],[1,0.5]];portConstraint=eastwest;rounded=0;shadow=0;html=0;" vertex="1" parent="qdE8DoFFmUSZvLk6b_Nt-0">
          <mxGeometry y="52" width="230" height="26" as="geometry" />
        </mxCell>
        <mxCell id="qdE8DoFFmUSZvLk6b_Nt-3" value="" style="line;html=1;strokeWidth=1;align=left;verticalAlign=middle;spacingTop=-1;spacingLeft=3;spacingRight=3;rotatable=0;labelPosition=right;points=[];portConstraint=eastwest;" vertex="1" parent="qdE8DoFFmUSZvLk6b_Nt-0">
          <mxGeometry y="78" width="230" height="8" as="geometry" />
        </mxCell>
        <mxCell id="qdE8DoFFmUSZvLk6b_Nt-4" value="getListaDePesagem() -&gt; List&lt;Pesagem&gt;" style="text;align=left;verticalAlign=top;spacingLeft=4;spacingRight=4;overflow=hidden;rotatable=0;points=[[0,0.5],[1,0.5]];portConstraint=eastwest;" vertex="1" parent="qdE8DoFFmUSZvLk6b_Nt-0">
          <mxGeometry y="86" width="230" height="26" as="geometry" />
        </mxCell>
        <mxCell id="qdE8DoFFmUSZvLk6b_Nt-5" value="getId() -&gt; int" style="text;align=left;verticalAlign=top;spacingLeft=4;spacingRight=4;overflow=hidden;rotatable=0;points=[[0,0.5],[1,0.5]];portConstraint=eastwest;" vertex="1" parent="qdE8DoFFmUSZvLk6b_Nt-0">
          <mxGeometry y="112" width="230" height="26" as="geometry" />
        </mxCell>
        <mxCell id="qdE8DoFFmUSZvLk6b_Nt-6" value="toString() -&gt; String" style="text;align=left;verticalAlign=top;spacingLeft=4;spacingRight=4;overflow=hidden;rotatable=0;points=[[0,0.5],[1,0.5]];portConstraint=eastwest;" vertex="1" parent="qdE8DoFFmUSZvLk6b_Nt-0">
          <mxGeometry y="138" width="230" height="26" as="geometry" />
        </mxCell>
        <mxCell id="qdE8DoFFmUSZvLk6b_Nt-7" value="TipoComida" style="swimlane;fontStyle=0;align=center;verticalAlign=top;childLayout=stackLayout;horizontal=1;startSize=26;horizontalStack=0;resizeParent=1;resizeLast=0;collapsible=1;marginBottom=0;rounded=0;shadow=0;strokeWidth=1;" vertex="1" parent="WIyWlLk6GJQsqaUBKTNV-1">
          <mxGeometry x="700" y="160.5" width="229.81" height="213" as="geometry">
            <mxRectangle x="340" y="380" width="170" height="26" as="alternateBounds" />
          </mxGeometry>
        </mxCell>
        <mxCell id="qdE8DoFFmUSZvLk6b_Nt-8" value="nome: String" style="text;align=left;verticalAlign=top;spacingLeft=4;spacingRight=4;overflow=hidden;rotatable=0;points=[[0,0.5],[1,0.5]];portConstraint=eastwest;" vertex="1" parent="qdE8DoFFmUSZvLk6b_Nt-7">
          <mxGeometry y="26" width="229.81" height="26" as="geometry" />
        </mxCell>
        <mxCell id="qdE8DoFFmUSZvLk6b_Nt-9" value="preco: double" style="text;align=left;verticalAlign=top;spacingLeft=4;spacingRight=4;overflow=hidden;rotatable=0;points=[[0,0.5],[1,0.5]];portConstraint=eastwest;" vertex="1" parent="qdE8DoFFmUSZvLk6b_Nt-7">
          <mxGeometry y="52" width="229.81" height="26" as="geometry" />
        </mxCell>
        <mxCell id="qdE8DoFFmUSZvLk6b_Nt-10" value="" style="line;html=1;strokeWidth=1;align=left;verticalAlign=middle;spacingTop=-1;spacingLeft=3;spacingRight=3;rotatable=0;labelPosition=right;points=[];portConstraint=eastwest;" vertex="1" parent="qdE8DoFFmUSZvLk6b_Nt-7">
          <mxGeometry y="78" width="229.81" height="2" as="geometry" />
        </mxCell>
        <mxCell id="qdE8DoFFmUSZvLk6b_Nt-11" value="getPreco() -&gt; double" style="text;align=left;verticalAlign=top;spacingLeft=4;spacingRight=4;overflow=hidden;rotatable=0;points=[[0,0.5],[1,0.5]];portConstraint=eastwest;" vertex="1" parent="qdE8DoFFmUSZvLk6b_Nt-7">
          <mxGeometry y="80" width="229.81" height="26" as="geometry" />
        </mxCell>
        <mxCell id="qdE8DoFFmUSZvLk6b_Nt-12" value="setPreco(preco: double) -&gt; void" style="text;align=left;verticalAlign=top;spacingLeft=4;spacingRight=4;overflow=hidden;rotatable=0;points=[[0,0.5],[1,0.5]];portConstraint=eastwest;" vertex="1" parent="qdE8DoFFmUSZvLk6b_Nt-7">
          <mxGeometry y="106" width="229.81" height="26" as="geometry" />
        </mxCell>
        <mxCell id="qdE8DoFFmUSZvLk6b_Nt-13" value="getNome() -&gt; String" style="text;align=left;verticalAlign=top;spacingLeft=4;spacingRight=4;overflow=hidden;rotatable=0;points=[[0,0.5],[1,0.5]];portConstraint=eastwest;" vertex="1" parent="qdE8DoFFmUSZvLk6b_Nt-7">
          <mxGeometry y="132" width="229.81" height="26" as="geometry" />
        </mxCell>
        <mxCell id="qdE8DoFFmUSZvLk6b_Nt-14" value="setNome(nome: String) -&gt; void" style="text;align=left;verticalAlign=top;spacingLeft=4;spacingRight=4;overflow=hidden;rotatable=0;points=[[0,0.5],[1,0.5]];portConstraint=eastwest;" vertex="1" parent="qdE8DoFFmUSZvLk6b_Nt-7">
          <mxGeometry y="158" width="229.81" height="26" as="geometry" />
        </mxCell>
        <mxCell id="qdE8DoFFmUSZvLk6b_Nt-15" value="toString() -&gt; String" style="text;align=left;verticalAlign=top;spacingLeft=4;spacingRight=4;overflow=hidden;rotatable=0;points=[[0,0.5],[1,0.5]];portConstraint=eastwest;" vertex="1" parent="qdE8DoFFmUSZvLk6b_Nt-7">
          <mxGeometry y="184" width="229.81" height="26" as="geometry" />
        </mxCell>
        <mxCell id="qdE8DoFFmUSZvLk6b_Nt-16" value="Pesagem" style="swimlane;fontStyle=0;align=center;verticalAlign=top;childLayout=stackLayout;horizontal=1;startSize=26;horizontalStack=0;resizeParent=1;resizeLast=0;collapsible=1;marginBottom=0;rounded=0;shadow=0;strokeWidth=1;" vertex="1" parent="WIyWlLk6GJQsqaUBKTNV-1">
          <mxGeometry x="370" y="132" width="203" height="270" as="geometry">
            <mxRectangle x="550" y="140" width="160" height="26" as="alternateBounds" />
          </mxGeometry>
        </mxCell>
        <mxCell id="qdE8DoFFmUSZvLk6b_Nt-17" value="id: int" style="text;align=left;verticalAlign=top;spacingLeft=4;spacingRight=4;overflow=hidden;rotatable=0;points=[[0,0.5],[1,0.5]];portConstraint=eastwest;" vertex="1" parent="qdE8DoFFmUSZvLk6b_Nt-16">
          <mxGeometry y="26" width="203" height="26" as="geometry" />
        </mxCell>
        <mxCell id="qdE8DoFFmUSZvLk6b_Nt-18" value="tipoDaComida: TipoComida" style="text;align=left;verticalAlign=top;spacingLeft=4;spacingRight=4;overflow=hidden;rotatable=0;points=[[0,0.5],[1,0.5]];portConstraint=eastwest;rounded=0;shadow=0;html=0;" vertex="1" parent="qdE8DoFFmUSZvLk6b_Nt-16">
          <mxGeometry y="52" width="203" height="26" as="geometry" />
        </mxCell>
        <mxCell id="qdE8DoFFmUSZvLk6b_Nt-19" value="peso: double" style="text;align=left;verticalAlign=top;spacingLeft=4;spacingRight=4;overflow=hidden;rotatable=0;points=[[0,0.5],[1,0.5]];portConstraint=eastwest;rounded=0;shadow=0;html=0;" vertex="1" parent="qdE8DoFFmUSZvLk6b_Nt-16">
          <mxGeometry y="78" width="203" height="26" as="geometry" />
        </mxCell>
        <mxCell id="qdE8DoFFmUSZvLk6b_Nt-20" value="cliente: Cliente" style="text;align=left;verticalAlign=top;spacingLeft=4;spacingRight=4;overflow=hidden;rotatable=0;points=[[0,0.5],[1,0.5]];portConstraint=eastwest;rounded=0;shadow=0;html=0;" vertex="1" parent="qdE8DoFFmUSZvLk6b_Nt-16">
          <mxGeometry y="104" width="203" height="26" as="geometry" />
        </mxCell>
        <mxCell id="qdE8DoFFmUSZvLk6b_Nt-21" value="" style="line;html=1;strokeWidth=1;align=left;verticalAlign=middle;spacingTop=-1;spacingLeft=3;spacingRight=3;rotatable=0;labelPosition=right;points=[];portConstraint=eastwest;" vertex="1" parent="qdE8DoFFmUSZvLk6b_Nt-16">
          <mxGeometry y="130" width="203" height="8" as="geometry" />
        </mxCell>
        <mxCell id="qdE8DoFFmUSZvLk6b_Nt-22" value="getId() -&gt; int" style="text;align=left;verticalAlign=top;spacingLeft=4;spacingRight=4;overflow=hidden;rotatable=0;points=[[0,0.5],[1,0.5]];portConstraint=eastwest;" vertex="1" parent="qdE8DoFFmUSZvLk6b_Nt-16">
          <mxGeometry y="138" width="203" height="26" as="geometry" />
        </mxCell>
        <mxCell id="qdE8DoFFmUSZvLk6b_Nt-23" value="getPeso() -&gt; double" style="text;align=left;verticalAlign=top;spacingLeft=4;spacingRight=4;overflow=hidden;rotatable=0;points=[[0,0.5],[1,0.5]];portConstraint=eastwest;" vertex="1" parent="qdE8DoFFmUSZvLk6b_Nt-16">
          <mxGeometry y="164" width="203" height="26" as="geometry" />
        </mxCell>
        <mxCell id="qdE8DoFFmUSZvLk6b_Nt-24" value="getTipoDaComida() -&gt; TipoComida" style="text;align=left;verticalAlign=top;spacingLeft=4;spacingRight=4;overflow=hidden;rotatable=0;points=[[0,0.5],[1,0.5]];portConstraint=eastwest;" vertex="1" parent="qdE8DoFFmUSZvLk6b_Nt-16">
          <mxGeometry y="190" width="203" height="26" as="geometry" />
        </mxCell>
        <mxCell id="qdE8DoFFmUSZvLk6b_Nt-25" value="getCliente() -&gt; Cliente" style="text;align=left;verticalAlign=top;spacingLeft=4;spacingRight=4;overflow=hidden;rotatable=0;points=[[0,0.5],[1,0.5]];portConstraint=eastwest;" vertex="1" parent="qdE8DoFFmUSZvLk6b_Nt-16">
          <mxGeometry y="216" width="203" height="26" as="geometry" />
        </mxCell>
        <mxCell id="qdE8DoFFmUSZvLk6b_Nt-26" value="toString() -&gt; String" style="text;align=left;verticalAlign=top;spacingLeft=4;spacingRight=4;overflow=hidden;rotatable=0;points=[[0,0.5],[1,0.5]];portConstraint=eastwest;" vertex="1" parent="qdE8DoFFmUSZvLk6b_Nt-16">
          <mxGeometry y="242" width="203" height="26" as="geometry" />
        </mxCell>
        <mxCell id="qdE8DoFFmUSZvLk6b_Nt-27" value="" style="endArrow=classic;html=1;rounded=0;" edge="1" parent="WIyWlLk6GJQsqaUBKTNV-1" source="qdE8DoFFmUSZvLk6b_Nt-16" target="qdE8DoFFmUSZvLk6b_Nt-7">
          <mxGeometry relative="1" as="geometry">
            <mxPoint x="393" y="412" as="sourcePoint" />
            <mxPoint x="643.19" y="222" as="targetPoint" />
          </mxGeometry>
        </mxCell>
        <mxCell id="qdE8DoFFmUSZvLk6b_Nt-28" value="contem" style="edgeLabel;resizable=0;html=1;align=center;verticalAlign=middle;" connectable="0" vertex="1" parent="qdE8DoFFmUSZvLk6b_Nt-27">
          <mxGeometry relative="1" as="geometry">
            <mxPoint y="-10" as="offset" />
          </mxGeometry>
        </mxCell>
        <mxCell id="qdE8DoFFmUSZvLk6b_Nt-29" value="1" style="edgeLabel;html=1;align=center;verticalAlign=middle;resizable=0;points=[];" vertex="1" connectable="0" parent="qdE8DoFFmUSZvLk6b_Nt-27">
          <mxGeometry x="0.7353" y="2" relative="1" as="geometry">
            <mxPoint y="-7" as="offset" />
          </mxGeometry>
        </mxCell>
        <mxCell id="qdE8DoFFmUSZvLk6b_Nt-30" value="" style="endArrow=block;startArrow=block;endFill=1;startFill=1;html=1;rounded=0;" edge="1" parent="WIyWlLk6GJQsqaUBKTNV-1" source="qdE8DoFFmUSZvLk6b_Nt-0" target="qdE8DoFFmUSZvLk6b_Nt-16">
          <mxGeometry width="160" relative="1" as="geometry">
            <mxPoint x="230" y="262" as="sourcePoint" />
            <mxPoint x="390" y="262" as="targetPoint" />
          </mxGeometry>
        </mxCell>
        <mxCell id="qdE8DoFFmUSZvLk6b_Nt-31" value="Realiza" style="edgeLabel;html=1;align=center;verticalAlign=middle;resizable=0;points=[];" vertex="1" connectable="0" parent="qdE8DoFFmUSZvLk6b_Nt-30">
          <mxGeometry x="-0.0224" y="-1" relative="1" as="geometry">
            <mxPoint x="1" y="-11" as="offset" />
          </mxGeometry>
        </mxCell>
        <mxCell id="qdE8DoFFmUSZvLk6b_Nt-32" value="1" style="edgeLabel;html=1;align=center;verticalAlign=middle;resizable=0;points=[];" vertex="1" connectable="0" parent="qdE8DoFFmUSZvLk6b_Nt-30">
          <mxGeometry x="-0.7503" relative="1" as="geometry">
            <mxPoint y="-9" as="offset" />
          </mxGeometry>
        </mxCell>
        <mxCell id="qdE8DoFFmUSZvLk6b_Nt-33" value="0..*" style="edgeLabel;html=1;align=center;verticalAlign=middle;resizable=0;points=[];" vertex="1" connectable="0" parent="qdE8DoFFmUSZvLk6b_Nt-30">
          <mxGeometry x="0.7054" y="1" relative="1" as="geometry">
            <mxPoint y="-7" as="offset" />
          </mxGeometry>
        </mxCell>
      </root>
    </mxGraphModel>
  </diagram>
</mxfile>
